<?xml version="1.0" encoding="iso-8859-1"?>
<!-- Uploaded to: SVG Repo, www.svgrepo.com, Generator: SVG Repo Mixer Tools -->
<svg fill="#000000" height="800px" width="800px" version="1.1" id="Layer_1" xmlns="http://www.w3.org/2000/svg" xmlns:xlink="http://www.w3.org/1999/xlink" 
	 viewBox="0 0 490 490" xml:space="preserve">
<g>
	<g>
		<g>
			<path d="M345,70c11.028,0,20-8.972,20-20V10c0-5.522-4.477-10-10-10H135c-5.523,0-10,4.478-10,10v40c0,11.028,8.972,20,20,20h10
				v220.635c-19.372,21.94-30,49.961-30,79.365c0,66.168,53.832,120,120,120s120-53.832,120-120c0-29.405-10.628-57.425-30-79.364
				V70H345z M345,370c0,55.141-44.86,100-100,100s-100-44.859-100-100c0-25.634,9.685-50.009,27.29-68.655
				C191.27,281.132,217.092,270,245,270s53.73,11.132,72.71,31.345c0.006,0.007,0.013,0.014,0.019,0.021
				C335.315,319.991,345,344.366,345,370z M215,200V70h20v150h20V70h20v130h20V70h20v202.438C294.836,257.854,270.65,250,245,250
				c-25.654,0-49.843,7.856-70,22.434V70h20v130H215z M145,50V20h200v30H145z"/>
			<path d="M245,285c-46.869,0-85,38.131-85,85c0,46.869,38.131,85,85,85s85-38.131,85-85C330,323.131,291.869,285,245,285z
				 M245,435c-35.841,0-65-29.159-65-65s29.159-65,65-65s65,29.159,65,65S280.841,435,245,435z"/>
			<path d="M255,345c0-5.522-4.477-10-10-10h-20v20h10v30h-10v20h40v-20h-10V345z"/>
		</g>
	</g>
</g>
</svg>