<?xml version="1.0" encoding="iso-8859-1"?>
<!-- Uploaded to: SVG Repo, www.svgrepo.com, Generator: SVG Repo Mixer Tools -->
<svg fill="#000000" height="800px" width="800px" version="1.1" id="Layer_1" xmlns="http://www.w3.org/2000/svg" xmlns:xlink="http://www.w3.org/1999/xlink" 
	 viewBox="0 0 330.02 330.02" xml:space="preserve">
<g id="XMLID_87_">
	<path id="XMLID_88_" d="M326.354,305.183L180,119.768V75.01v-60c0-8.284-6.716-15-15-15H95c-8.284,0-15,6.716-15,15v60
		c0,8.284,6.716,15,15,15h55v29.758L3.226,305.716c-3.562,4.513-4.23,10.663-1.724,15.836c2.507,5.173,7.75,8.458,13.498,8.458h300
		c0.008,0,0.014,0,0.02,0c8.285,0,15-6.716,15-15C330.02,311.251,328.638,307.815,326.354,305.183z M184.561,198.017l-12.834-6.422
		c-0.095-0.047-0.193-0.081-0.289-0.126c-0.245-0.116-0.492-0.225-0.743-0.327c-0.224-0.092-0.446-0.18-0.671-0.26
		c-0.22-0.077-0.44-0.146-0.663-0.214c-0.257-0.078-0.514-0.154-0.773-0.218c-0.202-0.05-0.404-0.09-0.608-0.131
		c-0.274-0.056-0.55-0.109-0.825-0.149c-0.207-0.03-0.414-0.049-0.622-0.07c-0.269-0.027-0.537-0.055-0.806-0.066
		c-0.231-0.012-0.463-0.011-0.696-0.011c-0.243,0-0.485-0.001-0.727,0.011c-0.259,0.012-0.518,0.038-0.776,0.064
		c-0.217,0.021-0.434,0.042-0.649,0.073c-0.269,0.039-0.537,0.091-0.805,0.146c-0.21,0.042-0.419,0.083-0.626,0.134
		c-0.256,0.063-0.509,0.138-0.763,0.215c-0.225,0.067-0.448,0.137-0.669,0.215c-0.226,0.081-0.45,0.169-0.674,0.261
		c-0.247,0.101-0.492,0.208-0.734,0.322c-0.098,0.046-0.198,0.081-0.296,0.129l-12.862,6.427l-13.119-7.442L165,149.185
		l32.676,41.396L184.561,198.017z"/>
</g>
</svg>